<svg xmlns="http://www.w3.org/2000/svg" xmlns:xlink="http://www.w3.org/1999/xlink" version="1.1" x="0px" y="0px" viewBox="0 0 90 112.5" enable-background="new 0 0 90 90" xml:space="preserve"><g><path d="M80.1,18.4H62.7l-4.1-7.1c-1-1.7-3-2.7-5.4-2.7H36.9c-3.4,0-4.9,1.7-5.5,2.7l-4,7.1h-4.7c-0.4-1.9-2.1-3.2-4.1-3.2h-6.7   c-2.1,0-3.8,1.5-4.1,3.4c-4.4,1-7.8,4.9-7.8,9.6v42.4c0,5.4,4.4,9.9,9.9,9.9h70.3c5.4,0,9.9-4.4,9.9-9.9V28.2   C90,22.8,85.6,18.4,80.1,18.4z M11.9,17h6.7c1,0,1.9,0.6,2.3,1.4h-11c0,0-0.1,0-0.1,0C10.1,17.6,11,17,11.9,17z M88.2,70.7   c0,4.4-3.6,8.1-8.1,8.1H9.9c-4.4,0-8.1-3.6-8.1-8.1V28.2c0-4.4,3.6-8.1,8.1-8.1h18.6l4.5-8c0.7-1.2,2.1-1.8,4-1.8h16.3   c1.8,0,3.2,0.7,3.9,1.8l4.6,8h18.5c4.4,0,8.1,3.6,8.1,8.1V70.7z"/><path d="M72.6,28.4c-1.3,0-2.3,1-2.3,2.3c0,1.3,1,2.3,2.3,2.3c1.3,0,2.3-1,2.3-2.3C75,29.4,74,28.4,72.6,28.4z M72.6,31.2   c-0.3,0-0.5-0.2-0.5-0.5c0-0.3,0.3-0.5,0.5-0.5c0.3,0,0.5,0.2,0.5,0.5C73.2,31,73,31.2,72.6,31.2z"/><path d="M45,24.5c-13.6,0-24.6,11-24.6,24.5c0,13.5,11,24.5,24.6,24.5c13.5,0,24.6-11,24.6-24.5C69.6,35.5,58.6,24.5,45,24.5z    M45,71.7c-12.6,0-22.8-10.2-22.8-22.7c0-12.5,10.2-22.7,22.8-22.7S67.8,36.4,67.8,49C67.8,61.5,57.6,71.7,45,71.7z"/></g><text x="0" y="105" fill="#000000" font-size="5px" font-weight="bold" font-family="'Helvetica Neue', Helvetica, Arial-Unicode, Arial, Sans-serif">Created by Anna Ho</text><text x="0" y="110" fill="#000000" font-size="5px" font-weight="bold" font-family="'Helvetica Neue', Helvetica, Arial-Unicode, Arial, Sans-serif">from the Noun Project</text></svg>