<svg xmlns:dc="http://purl.org/dc/elements/1.1/" xmlns:cc="http://creativecommons.org/ns#" xmlns:rdf="http://www.w3.org/1999/02/22-rdf-syntax-ns#" xmlns:svg="http://www.w3.org/2000/svg" xmlns="http://www.w3.org/2000/svg" xmlns:sodipodi="http://sodipodi.sourceforge.net/DTD/sodipodi-0.dtd" xmlns:inkscape="http://www.inkscape.org/namespaces/inkscape" viewBox="0 0 90.000001 112.50000125" version="1.1" x="0px" y="0px"><g transform="translate(0,-962.36216)"><path style="color:#000000;font-style:normal;font-variant:normal;font-weight:normal;font-stretch:normal;font-size:medium;line-height:normal;font-family:sans-serif;text-indent:0;text-align:start;text-decoration:none;text-decoration-line:none;text-decoration-style:solid;text-decoration-color:#000000;letter-spacing:normal;word-spacing:normal;text-transform:none;direction:ltr;block-progression:tb;writing-mode:lr-tb;baseline-shift:baseline;text-anchor:start;white-space:normal;clip-rule:nonzero;display:inline;overflow:visible;visibility:visible;opacity:1;isolation:auto;mix-blend-mode:normal;color-interpolation:sRGB;color-interpolation-filters:linearRGB;solid-color:#000000;solid-opacity:1;fill:#000000;fill-opacity:1;fill-rule:nonzero;stroke:none;stroke-width:2;stroke-linecap:round;stroke-linejoin:round;stroke-miterlimit:2;stroke-dasharray:none;stroke-dashoffset:0;stroke-opacity:1;color-rendering:auto;image-rendering:auto;shape-rendering:auto;text-rendering:auto;enable-background:accumulate" d="m 44.69767,971.51668 c -3.211449,0.0924 -6.310814,1.32024 -8.808593,3.2793 -2.493676,1.95586 -4.371326,4.59933 -5.566407,7.49219 -2.387431,5.7791 -2.01858,12.28493 -0.398437,18.16573 0.921936,3.3467 2.28439,6.6957 4.574219,9.4629 2.301416,2.7811 5.598079,4.906 9.30664,5.2246 2.053194,0.1764 4.115472,-0.211 5.978516,-1.0137 1.860668,-0.8016 3.512251,-2.005 4.902344,-3.4336 2.77768,-2.8548 4.459036,-6.5249 5.552734,-10.2207 1.774921,-5.9974 2.130984,-12.70472 -0.445312,-18.56804 -1.289593,-2.93496 -3.303513,-5.58545 -5.935547,-7.48243 -2.636464,-1.90017 -5.873885,-3.00076 -9.160157,-2.90625 z m 0.05664,1.99805 c 2.798441,-0.0805 5.631762,0.87226 7.933594,2.53125 2.30626,1.66218 4.11431,4.02603 5.273437,6.66406 2.321142,5.28263 2.039174,11.51903 0.359375,17.1951 -1.037153,3.50456 -2.609425,6.86726 -5.068359,9.39446 -1.228215,1.2622 -2.674205,2.3063 -4.261719,2.9902 -1.585136,0.683 -3.326076,1.0044 -5.013672,0.8594 -3.044282,-0.2615 -5.917906,-2.0673 -7.9375,-4.5078 -2.031179,-2.4546 -3.307389,-5.531 -4.185547,-8.71866 -1.539999,-5.58997 -1.839228,-11.6529 0.316407,-16.8709 1.076453,-2.6057 2.765613,-4.96592 4.953125,-6.68164 2.183411,-1.7125 4.895485,-2.77679 7.630859,-2.85547 z"/><path style="color:#000000;font-style:normal;font-variant:normal;font-weight:normal;font-stretch:normal;font-size:medium;line-height:normal;font-family:sans-serif;text-indent:0;text-align:start;text-decoration:none;text-decoration-line:none;text-decoration-style:solid;text-decoration-color:#000000;letter-spacing:normal;word-spacing:normal;text-transform:none;direction:ltr;block-progression:tb;writing-mode:lr-tb;baseline-shift:baseline;text-anchor:start;white-space:normal;clip-rule:nonzero;display:inline;overflow:visible;visibility:visible;opacity:1;isolation:auto;mix-blend-mode:normal;color-interpolation:sRGB;color-interpolation-filters:linearRGB;solid-color:#000000;solid-opacity:1;fill:#000000;fill-opacity:1;fill-rule:nonzero;stroke:none;stroke-width:2;stroke-linecap:round;stroke-linejoin:round;stroke-miterlimit:2;stroke-dasharray:none;stroke-dashoffset:0;stroke-opacity:1;color-rendering:auto;image-rendering:auto;shape-rendering:auto;text-rendering:auto;enable-background:accumulate" d="m 45.146889,1020.2078 c -9.353908,-0.01 -17.918055,2.2212 -24.359375,5.9492 -6.441319,3.728 -10.8146336,9.0114 -11.4511711,15.0977 a 1.0001,1.0001 0 1 0 1.9882811,0.207 c 0.549955,-5.2584 4.391623,-10.0593 10.464843,-13.5742 6.073221,-3.515 14.323833,-5.6876 23.357422,-5.6797 9.03359,0.01 17.271618,2.1956 23.328125,5.7207 6.056507,3.5251 9.874432,8.3309 10.400391,13.5899 a 1.0001,1.0001 0 1 0 1.990234,-0.1993 c -0.608839,-6.0877 -4.959783,-11.3795 -11.384765,-15.1191 -6.424983,-3.7396 -14.980076,-5.984 -24.333985,-5.9922 z"/></g></svg>
