<?xml version="1.0" encoding="utf-8"?>
<!-- Generator: Adobe Illustrator 16.0.4, SVG Export Plug-In . SVG Version: 6.00 Build 0)  -->
<!DOCTYPE svg PUBLIC "-//W3C//DTD SVG 1.1//EN" "http://www.w3.org/Graphics/SVG/1.1/DTD/svg11.dtd">
<svg version="1.1" id="Layer_1" xmlns="http://www.w3.org/2000/svg" xmlns:xlink="http://www.w3.org/1999/xlink" x="0px" y="0px"
	 width="283.46px" height="283.46px" viewBox="0 0 283.46 283.46" enable-background="new 0 0 283.46 283.46" xml:space="preserve">
<g transform="translate(0,-952.36218)">
	<path fill="#ED3736" d="M79.634,986.742c-17.328,0-34.671,6.78-47.857,20.443c-26.375,27.326-26.345,71.225,0,98.572
		l108.396,112.516c1.949,2.017,5.158,2.066,7.172,0.12c0.039-0.039,0.079-0.079,0.118-0.12
		c36.161-37.464,72.235-74.892,108.397-112.357c26.372-27.327,26.372-71.247,0-98.572c-26.376-27.325-69.347-27.325-95.719,0
		l-16.324,16.799l-16.323-16.957C114.307,993.521,96.965,986.742,79.634,986.742z M147.345,1035.195
		c0.039-0.039,0.079-0.078,0.118-0.118C147.463,1035.077,145.33,1037.141,147.345,1035.195z"/>
</g>
</svg>
