<svg xmlns:dc="http://purl.org/dc/elements/1.1/" xmlns:cc="http://creativecommons.org/ns#" xmlns:rdf="http://www.w3.org/1999/02/22-rdf-syntax-ns#" xmlns:svg="http://www.w3.org/2000/svg" xmlns="http://www.w3.org/2000/svg" xmlns:sodipodi="http://sodipodi.sourceforge.net/DTD/sodipodi-0.dtd" xmlns:inkscape="http://www.inkscape.org/namespaces/inkscape" version="1.1" x="0px" y="0px" viewBox="0 0 100 125"><g transform="translate(0,-952.36218)"><path style="text-indent:0;text-transform:none;direction:ltr;block-progression:tb;baseline-shift:baseline;color:#000000;enable-background:accumulate;" d="m 7.8169864,958.36327 a 2.0052397,1.9947835 0 0 0 -1.8125,2 l 0,84.00003 a 2.0052397,1.9947835 0 0 0 2,2 l 42.0937506,0 a 2.0104835,2 0 0 0 0,-4 l -40.093751,0 0,-80.00003 40.218751,0 a 2.0104835,2 0 0 0 0,-4 l -42.2187506,0 a 2.0052397,1.9947835 0 0 0 -0.1875,0 z" fill="#000000" fill-opacity="1" fill-rule="evenodd" stroke="none" marker="none" visibility="visible" display="inline" overflow="visible"/><path style="text-indent:0;text-transform:none;direction:ltr;block-progression:tb;baseline-shift:baseline;color:#000000;enable-background:accumulate;" d="m 45.941987,980.23827 a 2.0052397,1.9947835 0 0 0 -1.375,0.625 l -22.03125,21.90623 a 2.0052397,1.9947835 0 0 0 0,2.8125 l 22.03125,21.9063 a 2.0161298,2.0056168 0 1 0 2.84375,-2.8438 l -18.59375,-18.4687 63.187503,0 a 2.00002,2.00002 0 0 0 0,-4 l -63.187503,0 18.59375,-18.50003 a 2.0052397,1.9947835 0 0 0 -1.46875,-3.4375 z" fill="#000000" fill-opacity="1" fill-rule="evenodd" stroke="none" marker="none" visibility="visible" display="inline" overflow="visible"/></g></svg>