<?xml version="1.0" encoding="utf-8"?>
<!-- Generator: Adobe Illustrator 16.0.4, SVG Export Plug-In . SVG Version: 6.00 Build 0)  -->
<!DOCTYPE svg PUBLIC "-//W3C//DTD SVG 1.1//EN" "http://www.w3.org/Graphics/SVG/1.1/DTD/svg11.dtd">
<svg version="1.1" id="Layer_1" xmlns="http://www.w3.org/2000/svg" xmlns:xlink="http://www.w3.org/1999/xlink" x="0px" y="0px"
	 width="595.279px" height="841.891px" viewBox="0 0 595.279 841.891" enable-background="new 0 0 595.279 841.891"
	 xml:space="preserve">
<title>power</title>
<g>
	<g>
		<path d="M386.748,99.726c-4.979-1.383-10.137,1.533-11.52,6.512c-1.317,4.741,1.264,9.692,5.905,11.328
			c116.772,36.617,195.245,140.352,195.245,258.186c0,149.709-125.132,271.286-278.957,271.286
			c-153.826,0-278.709-121.639-278.709-271.223c0-117.833,78.473-221.631,195.246-258.186c4.979-1.383,7.895-6.54,6.512-11.519
			c-1.383-4.979-6.54-7.895-11.52-6.512c-0.204,0.057-0.406,0.121-0.606,0.191C83.712,138.775,0,249.871,0,375.814
			C0,535.69,133.553,665.812,297.671,665.812S595.28,535.69,595.28,375.814C595.28,249.871,511.505,138.775,386.748,99.726z"/>
		<path d="M297.671,204.522c5.168,0,9.356-4.189,9.356-9.357V22.189c0-5.167-4.188-9.357-9.356-9.357
			c-5.167,0-9.356,4.189-9.356,9.357v172.976C288.315,200.333,292.504,204.522,297.671,204.522z"/>
	</g>
</g>
</svg>
