<?xml version="1.0" encoding="utf-8"?>
<!-- Generator: Adobe Illustrator 16.0.4, SVG Export Plug-In . SVG Version: 6.00 Build 0)  -->
<!DOCTYPE svg PUBLIC "-//W3C//DTD SVG 1.1//EN" "http://www.w3.org/Graphics/SVG/1.1/DTD/svg11.dtd">
<svg version="1.1" id="Layer_1" xmlns="http://www.w3.org/2000/svg" xmlns:xlink="http://www.w3.org/1999/xlink" x="0px" y="0px"
	 width="595.279px" height="841.891px" viewBox="0 0 595.279 841.891" enable-background="new 0 0 595.279 841.891"
	 xml:space="preserve">
<g>
	<path d="M529.799,170.597H414.712l-27.119-46.961c-6.614-11.244-19.843-17.858-35.717-17.858H244.065
		c-22.488,0-32.409,11.244-36.378,17.858l-26.457,46.961h-31.087c-2.646-12.567-13.89-21.166-27.118-21.166H78.709
		c-13.89,0-25.134,9.921-27.118,22.488C22.489,178.534,0,204.329,0,235.416v280.443c0,35.717,29.103,65.48,65.48,65.48H530.46
		c35.718,0,65.481-29.103,65.481-65.48V235.416C595.28,199.699,566.177,170.597,529.799,170.597z M78.709,161.337h44.315
		c6.614,0,12.567,3.968,15.213,9.26H65.481H64.82C66.804,165.305,72.756,161.337,78.709,161.337z M583.374,516.521
		c0,29.103-23.812,53.575-53.575,53.575H65.481c-29.103,0-53.575-23.812-53.575-53.575V235.416
		c0-29.103,23.812-53.575,53.575-53.575h123.024l29.765-52.914c4.63-7.937,13.89-11.905,26.457-11.905h107.812
		c11.905,0,21.165,4.63,25.795,11.905l30.426,52.914h122.363c29.103,0,53.575,23.811,53.575,53.575v281.104H583.374z"/>
	<path d="M480.193,236.739c-8.599,0-15.213,6.614-15.213,15.213s6.614,15.212,15.213,15.212s15.213-6.614,15.213-15.212
		C496.067,243.353,489.452,236.739,480.193,236.739z M480.193,255.259c-1.984,0-3.308-1.323-3.308-3.307s1.984-3.307,3.308-3.307
		c1.984,0,3.307,1.323,3.307,3.307C484.161,253.936,482.838,255.259,480.193,255.259z"/>
	<path d="M297.64,210.943c-89.953,0-162.71,72.756-162.71,162.049c0,89.292,72.757,162.048,162.71,162.048
		c89.292,0,162.71-72.756,162.71-162.048C460.35,283.7,387.593,210.943,297.64,210.943z M297.64,523.135
		c-83.339,0-150.804-67.465-150.804-150.143c0-82.678,67.465-150.143,150.804-150.143s150.805,66.804,150.805,150.143
		C448.445,455.67,380.979,523.135,297.64,523.135z"/>
</g>
</svg>
