<svg xmlns="http://www.w3.org/2000/svg" xmlns:xlink="http://www.w3.org/1999/xlink" version="1.1" x="0px" y="0px" viewBox="0 0 100 125" enable-background="new 0 0 100 100" xml:space="preserve"><path d="M46.664,66.701V40.086c0-0.829-0.672-1.5-1.5-1.5s-1.5,0.671-1.5,1.5v26.615c0,0.829,0.672,1.5,1.5,1.5  S46.664,67.53,46.664,66.701z M56.34,66.701V40.086c0-0.829-0.672-1.5-1.5-1.5s-1.5,0.671-1.5,1.5v26.615c0,0.829,0.672,1.5,1.5,1.5  S56.34,67.53,56.34,66.701z M66.473,38.586c-0.828,0-1.5,0.671-1.5,1.5V72.23c0,1.206-0.979,2.188-2.184,2.188H37.217  c-1.206,0-2.188-0.981-2.188-2.188V40.086c0-0.829-0.672-1.5-1.5-1.5s-1.5,0.671-1.5,1.5V72.23c0,2.86,2.327,5.188,5.188,5.188  h25.572c2.858,0,5.184-2.327,5.184-5.188V40.086C67.973,39.257,67.301,38.586,66.473,38.586z M71.186,31.971H60.951v-7.889  c0-0.829-0.672-1.5-1.5-1.5H40.555c-0.828,0-1.5,0.671-1.5,1.5v7.889h-10.24c-0.828,0-1.5,0.671-1.5,1.5s0.672,1.5,1.5,1.5h42.371  c0.828,0,1.5-0.671,1.5-1.5S72.014,31.971,71.186,31.971z M57.951,31.971H42.055v-6.389h15.896V31.971z"/></svg>
